<svg xmlns="http://www.w3.org/2000/svg" xmlns:xlink="http://www.w3.org/1999/xlink" xmlns:lucid="lucid" width="1500" height="2000"><g transform="translate(0 0)" lucid:page-tab-id="eeCe8u-ZIJ.P"><path d="M0 0h1500v2000H0z" fill="#fff"/><path d="M240 260.47v5m0 5v10m0 4.98v10m0 5v10m0 5v9.98m0 5v10m0 5v9.98m0 5v10m0 5v10m0 5v10m0 4.98v10m0 5v10m0 4.98v10m0 5v10m0 5v9.98m0 5v10m0 5v9.98m0 5v10m0 5v9.98m0 5v10m0 5v10m0 4.98v10m0 5v10m0 5v9.98m0 5v10m0 5v9.98m0 5v10m0 5v9.98m0 5v10m0 5v10m0 4.98v10m0 5v10m0 5v9.98m0 5v10m0 5v9.98m0 5v10m0 5v9.98m0 5v10m0 5v10m0 4.98v10m0 5v10m0 4.98v10m0 5v10m0 5v9.98m0 5v10m0 5v9.98m0 5v10m0 5v9.98m0 5v10m0 5v10m0 4.98v10m0 5v10m0 5v9.98m0 5v10m0 5v9.98m0 5v10m0 5v9.98m0 5v10m0 5v10m0 4.98v10m0 5v10m0 4.98v10m0 5v10m0 5v9.98m0 5v10m0 5v9.98m0 5v10m0 5v9.98m0 5v10m0 5v10m0 4.98v10m0 5v10m0 5v9.98m0 5v10m0 5v9.98m0 5v10m0 5v9.98m0 5v10m0 5v10m0 4.98v10m0 5v10m0 5v9.98m0 5v10m0 5v9.98m0 5v10m0 5v9.98m0 5v10m0 5v10m0 4.98v10m0 5v10m0 4.98v10m0 5v10m0 5v9.98m0 5v10m0 5v9.98m0 5v10m0 5v9.98m0 5v10m0 5v10m0 4.98v10m0 5v10m0 5v9.98m0 5v10m0 5v9.98m0 5v10m0 5v9.98m0 5v10m0 5v10m0 4.98v5" stroke="#333" fill="none"/><path d="M240.5 260.48h-1v-.5h1z" stroke="#333" stroke-width=".05" fill="#333"/><path d="M240 1879.5v.5M660 260.47v5m0 5v10m0 4.98v10m0 5v10m0 5v9.98m0 5v10m0 5v9.98m0 5v10m0 5v10m0 5v10m0 4.98v10m0 5v10m0 4.98v10m0 5v10m0 5v9.98m0 5v10m0 5v9.98m0 5v10m0 5v9.98m0 5v10m0 5v10m0 4.98v10m0 5v10m0 5v9.98m0 5v10m0 5v9.98m0 5v10m0 5v9.98m0 5v10m0 5v10m0 4.98v10m0 5v10m0 5v9.98m0 5v10m0 5v9.98m0 5v10m0 5v9.98m0 5v10m0 5v10m0 4.98v10m0 5v10m0 4.98v10m0 5v10m0 5v9.98m0 5v10m0 5v9.98m0 5v10m0 5v9.98m0 5v10m0 5v10m0 4.98v10m0 5v10m0 5v9.98m0 5v10m0 5v9.98m0 5v10m0 5v9.98m0 5v10m0 5v10m0 4.98v10m0 5v10m0 4.98v10m0 5v10m0 5v9.98m0 5v10m0 5v9.98m0 5v10m0 5v9.98m0 5v10m0 5v10m0 4.98v10m0 5v10m0 5v9.98m0 5v10m0 5v9.98m0 5v10m0 5v9.98m0 5v10m0 5v10m0 4.98v10m0 5v10m0 5v9.98m0 5v10m0 5v9.98m0 5v10m0 5v9.98m0 5v10m0 5v10m0 4.98v10m0 5v10m0 4.98v10m0 5v10m0 5v9.98m0 5v10m0 5v9.98m0 5v10m0 5v9.98m0 5v10m0 5v10m0 4.98v10m0 5v10m0 5v9.98m0 5v10m0 5v9.98m0 5v10m0 5v9.98m0 5v10m0 5v10m0 4.98v5" stroke="#333" fill="none"/><path d="M660.5 260.48h-1v-.5h1z" stroke="#333" stroke-width=".05" fill="#333"/><path d="M660 1879.5v.5M1080 260.47v4.98m0 4.98v9.97m0 4.98v9.97m0 4.98v9.97m0 4.98v9.96m0 5v9.95m0 4.97v9.97m0 4.98v9.97m0 4.97v9.97m0 4.98v9.96m0 5v9.95m0 5v9.95m0 4.98v9.97m0 4.98v9.98m0 4.98v9.96m0 5v9.95m0 5v9.95m0 4.98v9.97m0 4.98v9.97m0 4.98v9.96m0 5v9.95m0 5v9.96m0 4.98v9.97m0 5v9.96m0 4.98v9.97m0 5v9.95m0 5v9.95m0 4.98v9.97m0 4.98V684m0 4.98v9.97m0 4.98v9.96m0 4.98v9.96m0 4.98v9.97m0 4.97v9.97m0 4.98v9.97m0 4.97v9.96m0 5v9.95m0 4.98v9.97m0 4.98v9.98m0 4.98v9.97m0 4.98v9.97m0 5v9.95m0 4.98v9.97m0 4.98v9.97m0 4.98v9.97m0 4.98v9.96m0 5v9.96m0 4.98V968m0 5v9.96m0 4.98v9.97m0 5v9.95m0 5v9.95m0 4.98v9.97m0 4.98v9.97m0 4.98v9.97m0 4.98v9.96m0 4.98v9.96m0 5v9.95m0 4.97v9.97m0 4.98v9.97m0 4.97v9.96m0 5v9.95m0 5v9.95m0 4.98v9.98m0 4.98v9.97m0 4.98v9.97m0 5v9.95m0 5v9.95m0 4.98v9.97m0 4.98v9.97m0 4.98v9.97m0 4.98v9.96m0 5v9.95m0 5v9.96m0 4.98v9.97m0 5v9.96m0 4.98v9.96m0 5v9.95m0 4.98v9.97m0 4.98v9.97m0 4.98v9.97m0 4.98v9.96m0 5v9.95m0 4.97v9.97m0 4.98v9.97m0 4.97v9.97m0 4.98v9.96m0 5v9.95m0 4.98v9.98m0 4.98v9.97m0 4.98v9.98m0 4.98v9.96m0 5v9.95m0 4.98v9.97m0 4.98v9.97m0 4.98v9.97m0 4.98v9.96m0 5v9.95m0 5v9.96m0 4.98v9.97m0 5v9.96m0 4.98v9.96m0 5v9.95m0 5v9.95m0 4.98v9.97m0 4.98v9.97m0 4.98v9.96m0 5v4.97" stroke="#333" fill="none"/><path d="M1080.5 260.48h-1v-.5h1zM1080.5 1860.4h-1v-.5h1z" stroke="#333" stroke-width=".05" fill="#333"/><path d="M1060 705a5 5 0 0 1 5-5h30a5 5 0 0 1 5 5v130a5 5 0 0 1-5 5h-30a5 5 0 0 1-5-5z" stroke="#000" stroke-opacity="0" stroke-width="2" fill="#d2d3d5"/><path d="M160 145a5 5 0 0 1 5-5h150a5 5 0 0 1 5 5v110a5 5 0 0 1-5 5H165a5 5 0 0 1-5-5z" stroke="#000" stroke-opacity="0" stroke-width="2" fill="#ffbd50"/><use xlink:href="#a" transform="matrix(1,0,0,1,160,140) translate(61.055 63.15)"/><path d="M580 145a5 5 0 0 1 5-5h150a5 5 0 0 1 5 5v110a5 5 0 0 1-5 5H585a5 5 0 0 1-5-5z" stroke="#000" stroke-opacity="0" stroke-width="2" fill="#ffcc78"/><use xlink:href="#b" transform="matrix(1,0,0,1,580,140) translate(36.07999999999999 63.15)"/><path d="M1000 145a5 5 0 0 1 5-5h150a5 5 0 0 1 5 5v110a5 5 0 0 1-5 5h-150a5 5 0 0 1-5-5z" stroke="#000" stroke-opacity="0" stroke-width="2" fill="#ffd99a"/><use xlink:href="#c" transform="matrix(1,0,0,1,1000,140) translate(41.529999999999994 63.15)"/><path d="M213.15 75a8 8 0 0 1 8-8h836.75a8 8 0 0 1 8 8v25.16a8 8 0 0 1-8 8H221.15a8 8 0 0 1-8-8z" stroke="#000" stroke-opacity="0" stroke-width="2" fill="#fff" fill-opacity="0"/><use xlink:href="#d" transform="matrix(1,0,0,1,217.14655278534315,71.00000000000006) translate(221.53160493827158 25.782777777777778)"/><use xlink:href="#e" transform="matrix(1,0,0,1,217.14655278534315,71.00000000000006) translate(352.42419753086415 25.782777777777778)"/><use xlink:href="#f" transform="matrix(1,0,0,1,217.14655278534315,71.00000000000006) translate(470.2056790123457 25.782777777777778)"/><use xlink:href="#g" transform="matrix(1,0,0,1,217.14655278534315,71.00000000000006) translate(529.8612345679012 25.782777777777778)"/><path d="M397.47 106.8h491.4M397.5 106.8h-1.03M888.84 106.8h1.03" stroke="#b2b2b2" stroke-width="2" fill="none"/><path d="M213.15 116.16a8 8 0 0 1 8-8h837.7a8 8 0 0 1 8 8V119a8 8 0 0 1-8 8h-837.7a8 8 0 0 1-8-8z" stroke="#000" stroke-opacity="0" stroke-width="2" fill="#fff" fill-opacity="0"/><use xlink:href="#h" transform="matrix(1,0,0,1,217.1465527853436,112.15522395678234) translate(333.15130658436215 14.917037037037037)"/><use xlink:href="#i" transform="matrix(1,0,0,1,217.1465527853436,112.15522395678234) translate(371.94441358024693 14.917037037037037)"/><use xlink:href="#j" transform="matrix(1,0,0,1,217.1465527853436,112.15522395678234) translate(418.64060699588475 14.917037037037037)"/><use xlink:href="#k" transform="matrix(1,0,0,1,217.1465527853436,112.15522395678234) translate(431.09009259259255 14.917037037037037)"/><use xlink:href="#l" transform="matrix(1,0,0,1,217.1465527853436,112.15522395678234) translate(468.4810390946502 14.917037037037037)"/><use xlink:href="#m" transform="matrix(1,0,0,1,217.1465527853436,112.15522395678234) translate(485.4769238683127 14.917037037037037)"/><path d="M220 305a5 5 0 0 1 5-5h30a5 5 0 0 1 5 5v110a5 5 0 0 1-5 5h-30a5 5 0 0 1-5-5zM640 305a5 5 0 0 1 5-5h30a5 5 0 0 1 5 5v290a5 5 0 0 1-5 5h-30a5 5 0 0 1-5-5z" stroke="#000" stroke-opacity="0" stroke-width="2" fill="#d2d3d5"/><path d="M406.5 311.95H260.44v-1H406.5zm217.12-.02l-130.17.02v-1l130.17-.02z" stroke="#333" stroke-width=".05" fill="#333"/><path d="M260.46 311.95h-.52v-1h.52z" fill="#333"/><path d="M260.48 311.97h-.56v-1.05h.56zm-.5-1v.95h.45v-.95z" stroke="#333" stroke-width=".05" fill="#333"/><path d="M638.38 311.43l-14.26 4.64v-9.27z" fill="#333"/><path d="M640 311.43l-16.38 5.33V306.1zm-15.38 3.95l12.15-3.95-12.15-3.94z" stroke="#333" stroke-width=".05" fill="#333"/><use xlink:href="#n" transform="matrix(1,0,0,1,406.49687221409613,300.64090364479233) translate(0.005000000000002558 14.4)"/><path d="M1060 305a5 5 0 0 1 5-5h30a5 5 0 0 1 5 5v110a5 5 0 0 1-5 5h-30a5 5 0 0 1-5-5z" stroke="#000" stroke-opacity="0" stroke-width="2" fill="#d2d3d5"/><path d="M809.08 340.57H680.45v-1h128.63zm234.56-.07l-112.76.05v-1l112.76-.05z" stroke="#333" stroke-width=".05" fill="#333"/><path d="M680.46 340.57h-.5v-1h.5z" fill="#333"/><path d="M680.48 340.6h-.56v-1.05h.56zm-.5-1v.95h.45v-.95z" stroke="#333" stroke-width=".05" fill="#333"/><path d="M1058.4 340l-14.26 4.64v-9.28z" fill="#333"/><path d="M1060.02 340l-16.38 5.32v-10.64zm-15.38 3.95l12.14-3.95-12.14-3.95z" stroke="#333" stroke-width=".05" fill="#333"/><use xlink:href="#o" transform="matrix(1,0,0,1,809.0827167075108,329.2371273443777) translate(0.005000000000002558 14.4)"/><use xlink:href="#p" transform="matrix(1,0,0,1,809.0827167075108,329.2371273443777) translate(28.955000000000002 14.4)"/><path d="M817.6 380.6H696.34v-1H817.6zm241.94-.1H922.4v-1h137.14z" stroke="#333" stroke-width=".05" fill="#333"/><path d="M1060.04 380.5h-.5v-1h.5z" fill="#333"/><path d="M1060.07 380.52h-.57v-1.04h.57zm-.52-1v.96h.47v-.96z" stroke="#333" stroke-width=".05" fill="#333"/><path d="M695.84 384.74l-14.27-4.64 14.27-4.63z" fill="#333"/><path d="M696.34 385.43l-16.4-5.33 16.4-5.32zm-13.15-5.33l12.14 3.95v-7.9z" stroke="#333" stroke-width=".05" fill="#333"/><use xlink:href="#q" transform="matrix(1,0,0,1,817.5980884526306,369.25247102086274) translate(0.005000000000002558 14.4)"/><use xlink:href="#r" transform="matrix(1,0,0,1,817.5980884526306,369.25247102086274) translate(60.905 14.4)"/><path d="M220 465a5 5 0 0 1 5-5h30a5 5 0 0 1 5 5v30a5 5 0 0 1-5 5h-30a5 5 0 0 1-5-5z" stroke="#000" stroke-opacity="0" stroke-width="2" fill="#d2d3d5"/><path d="M406.58 480.5H276.35v-1h130.23zm232.96 0h-146.1v-1h146.1z" stroke="#333" stroke-width=".05" fill="#333"/><path d="M640.04 480.5h-.52v-1h.52z" fill="#333"/><path d="M640.06 480.52h-.56v-1.04h.56zm-.5-1v.96h.45v-.96z" stroke="#333" stroke-width=".05" fill="#333"/><path d="M275.85 484.64L261.6 480l14.25-4.64z" fill="#333"/><path d="M276.35 485.32L259.97 480l16.38-5.32zM263.2 480l12.15 3.95v-7.9z" stroke="#333" stroke-width=".05" fill="#333"/><use xlink:href="#s" transform="matrix(1,0,0,1,406.57852998525084,469.1999999999998) translate(0.005000000000002558 14.4)"/><use xlink:href="#t" transform="matrix(1,0,0,1,406.57852998525084,469.1999999999998) translate(53.90500000000001 14.4)"/><path d="M220 545a5 5 0 0 1 5-5h30a5 5 0 0 1 5 5v210a5 5 0 0 1-5 5h-30a5 5 0 0 1-5-5z" stroke="#000" stroke-opacity="0" stroke-width="2" fill="#d2d3d5"/><path d="M357.07 560.5h-80.74v-1h80.74zm282.48 0h-96.63v-1h96.63z" stroke="#333" stroke-width=".05" fill="#333"/><path d="M640.05 560.5h-.5v-1h.5z" fill="#333"/><path d="M640.08 560.52h-.56v-1.04h.56zm-.5-1v.96h.45v-.96z" stroke="#333" stroke-width=".05" fill="#333"/><path d="M275.83 564.64L261.56 560l14.27-4.64z" fill="#333"/><path d="M276.33 565.32l-16.4-5.32 16.4-5.32zM263.18 560l12.15 3.95v-7.9z" stroke="#333" stroke-width=".05" fill="#333"/><use xlink:href="#u" transform="matrix(1,0,0,1,357.07351500201827,549.2000000000002) translate(0.0049999999999954525 14.4)"/><use xlink:href="#v" transform="matrix(1,0,0,1,357.07351500201827,549.2000000000002) translate(59.904999999999994 14.4)"/><use xlink:href="#w" transform="matrix(1,0,0,1,357.07351500201827,549.2000000000002) translate(102.85499999999999 14.4)"/><path d="M640 665a5 5 0 0 1 5-5h30a5 5 0 0 1 5 5v310a5 5 0 0 1-5 5h-30a5 5 0 0 1-5-5z" stroke="#000" stroke-opacity="0" stroke-width="2" fill="#d2d3d5"/><path d="M623.62 699.5v1H500.97v-1zm-363.14 1v-1h138.54v1z" stroke="#333" stroke-width=".05" fill="#333"/><path d="M260.5 700.5h-.52v-1h.52z" fill="#333"/><path d="M260.52 700.52h-.56v-1.04h.56zm-.5-1v.96h.45v-.96z" stroke="#333" stroke-width=".05" fill="#333"/><path d="M638.4 700l-14.28 4.64v-9.27z" fill="#333"/><path d="M640 700l-16.38 5.33v-10.65zm-15.38 3.95l12.15-3.95-12.15-3.94z" stroke="#333" stroke-width=".05" fill="#333"/><use xlink:href="#x" transform="matrix(1,0,0,1,399.02042901763366,689.2013706902551) translate(0.005000000000002558 14.4)"/><use xlink:href="#y" transform="matrix(1,0,0,1,399.02042901763366,689.2013706902551) translate(53.955000000000005 14.4)"/><use xlink:href="#z" transform="matrix(1,0,0,1,399.02042901763366,689.2013706902551) translate(68.95500000000001 14.4)"/><path d="M816.48 740.5H680.45v-1h136.03zm227.15 0H923.48v-1h120.15z" stroke="#333" stroke-width=".05" fill="#333"/><path d="M680.47 740.5h-.52v-1h.52z" fill="#333"/><path d="M680.5 740.53h-.57v-1.05h.56zm-.52-1v.95h.46v-.95z" stroke="#333" stroke-width=".05" fill="#333"/><path d="M1058.4 740l-14.27 4.63v-9.27z" fill="#333"/><path d="M1060.02 740l-16.4 5.32v-10.65zm-15.4 3.94l12.16-3.94-12.15-3.95z" stroke="#333" stroke-width=".05" fill="#333"/><use xlink:href="#A" transform="matrix(1,0,0,1,816.4849415510342,729.197862061268) translate(0.005000000000002558 14.4)"/><use xlink:href="#B" transform="matrix(1,0,0,1,816.4849415510342,729.197862061268) translate(44.005 14.4)"/><use xlink:href="#z" transform="matrix(1,0,0,1,816.4849415510342,729.197862061268) translate(74.005 14.4)"/><path d="M774.2 820.5l-77.85.03v-1l77.86-.02zm285.35 0H965.8v-1h93.75z" stroke="#333" stroke-width=".05" fill="#333"/><path d="M1060.05 820.5h-.5v-1h.5z" fill="#333"/><path d="M1060.08 820.52h-.56v-1.04h.56zm-.5-1v.96h.45v-.96z" stroke="#333" stroke-width=".05" fill="#333"/><path d="M695.85 824.66l-14.26-4.63 14.25-4.64z" fill="#333"/><path d="M696.35 825.35l-16.38-5.32 16.38-5.33zm-13.14-5.32l12.15 3.94v-7.9z" stroke="#333" stroke-width=".05" fill="#333"/><use xlink:href="#C" transform="matrix(1,0,0,1,774.2117327004075,809.2128895212973) translate(0.0049999999999954525 14.4)"/><use xlink:href="#D" transform="matrix(1,0,0,1,774.2117327004075,809.2128895212973) translate(30.004999999999995 14.4)"/><use xlink:href="#E" transform="matrix(1,0,0,1,774.2117327004075,809.2128895212973) translate(68.005 14.4)"/><use xlink:href="#F" transform="matrix(1,0,0,1,774.2117327004075,809.2128895212973) translate(85.955 14.4)"/><path d="M639.54 844.68h-27.5a12 12 0 0 0-12 12v26.1a12 12 0 0 0 12 12h11.62" stroke="#333" fill="none"/><path d="M640.04 845.18h-.52v-1h.52z" stroke="#333" stroke-width=".05" fill="#333"/><path d="M638.43 894.78l-14.27 4.63v-9.26z" stroke="#333" fill="#333"/><use xlink:href="#G" transform="matrix(1,0,0,1,321.385638771166,858.9335160420629) translate(0.0049999999999954525 14.4)"/><use xlink:href="#H" transform="matrix(1,0,0,1,321.385638771166,858.9335160420629) translate(52.004999999999995 14.4)"/><use xlink:href="#B" transform="matrix(1,0,0,1,321.385638771166,858.9335160420629) translate(65.955 14.4)"/><use xlink:href="#I" transform="matrix(1,0,0,1,321.385638771166,858.9335160420629) translate(95.955 14.4)"/><use xlink:href="#E" transform="matrix(1,0,0,1,321.385638771166,858.9335160420629) translate(135.905 14.4)"/><use xlink:href="#J" transform="matrix(1,0,0,1,321.385638771166,858.9335160420629) translate(153.855 14.4)"/><path d="M220 945a5 5 0 0 1 5-5h30a5 5 0 0 1 5 5v110a5 5 0 0 1-5 5h-30a5 5 0 0 1-5-5z" stroke="#000" stroke-opacity="0" stroke-width="2" fill="#d2d3d5"/><path d="M332.65 960.5h-56.32v-1h56.32zm306.9-.1h-72.2v-1h72.2z" stroke="#333" stroke-width=".05" fill="#333"/><path d="M640.06 960.4h-.5v-1h.5z" fill="#333"/><path d="M640.08 960.4h-.56v-1.04h.56zm-.5-1v.96h.45v-.95z" stroke="#333" stroke-width=".05" fill="#333"/><path d="M275.83 964.63L261.57 960l14.26-4.64z" fill="#333"/><path d="M276.33 965.32L259.95 960l16.38-5.33zM263.18 960l12.15 3.94v-7.9z" stroke="#333" stroke-width=".05" fill="#333"/><use xlink:href="#C" transform="matrix(1,0,0,1,332.65281306776467,949.1405771664572) translate(0.0049999999999954525 14.4)"/><use xlink:href="#I" transform="matrix(1,0,0,1,332.65281306776467,949.1405771664572) translate(30.004999999999995 14.4)"/><use xlink:href="#E" transform="matrix(1,0,0,1,332.65281306776467,949.1405771664572) translate(69.955 14.4)"/><use xlink:href="#K" transform="matrix(1,0,0,1,332.65281306776467,949.1405771664572) translate(87.905 14.4)"/><use xlink:href="#J" transform="matrix(1,0,0,1,332.65281306776467,949.1405771664572) translate(117.905 14.4)"/><path d="M260.47 1000H288a12 12 0 0 1 12 12v19.78a12 12 0 0 1-12 12h-11.62" stroke="#333" fill="none"/><path d="M260.48 1000.5h-.5v-1h.5z" stroke="#333" stroke-width=".05" fill="#333"/><path d="M261.6 1043.78l14.28-4.64v9.27z" stroke="#333" fill="#333"/><use xlink:href="#L" transform="matrix(1,0,0,1,307.9937563810262,1011.0774371289855) translate(0.0049999999999954525 14.4)"/><use xlink:href="#M" transform="matrix(1,0,0,1,307.9937563810262,1011.0774371289855) translate(79.905 14.4)"/><path d="M767.66 1060.5H680.5v-1h87.16zm275.98 0h-71.28v-1h71.28zM680.5 1060.5h-.5v-1h.5z" stroke="#333" stroke-width=".05" fill="#333"/><path d="M1058.4 1060l-14.26 4.62v-9.27z" fill="#333"/><path d="M1060.03 1060l-16.4 5.3v-10.64zm-15.4 3.93l12.16-3.94-12.16-3.96z" stroke="#333" stroke-width=".05" fill="#333"/><use xlink:href="#C" transform="matrix(1,0,0,1,767.6601812996374,1049.192506365609) translate(0.0049999999999954525 14.4)"/><use xlink:href="#I" transform="matrix(1,0,0,1,767.6601812996374,1049.192506365609) translate(30.004999999999995 14.4)"/><use xlink:href="#E" transform="matrix(1,0,0,1,767.6601812996374,1049.192506365609) translate(69.955 14.4)"/><use xlink:href="#J" transform="matrix(1,0,0,1,767.6601812996374,1049.192506365609) translate(87.905 14.4)"/><path d="M1060 965a5 5 0 0 1 5-5h30a5 5 0 0 1 5 5v230a5 5 0 0 1-5 5h-30a5 5 0 0 1-5-5z" stroke="#000" stroke-opacity="0" stroke-width="2" fill="#d2d3d5"/><path d="M1059.54 1100h-27.5a12 12 0 0 0-12 12v16.23a12 12 0 0 0 12 12h11.62" stroke="#333" fill="none"/><path d="M1060.04 1100.5h-.52v-1h.52z" stroke="#333" stroke-width=".05" fill="#333"/><path d="M1058.43 1140.23l-14.27 4.63v-9.27z" stroke="#333" fill="#333"/><use xlink:href="#x" transform="matrix(1,0,0,1,895.0860600489273,1109.32079896961) translate(0.005000000000002558 14.4)"/><use xlink:href="#B" transform="matrix(1,0,0,1,895.0860600489273,1109.32079896961) translate(53.955000000000005 14.4)"/><use xlink:href="#z" transform="matrix(1,0,0,1,895.0860600489273,1109.32079896961) translate(83.95500000000001 14.4)"/><path d="M640 1165a5 5 0 0 1 5-5h30a5 5 0 0 1 5 5v70a5 5 0 0 1-5 5h-30a5 5 0 0 1-5-5z" stroke="#000" stroke-opacity="0" stroke-width="2" fill="#d2d3d5"/><path d="M806.63 1180.5h-110.3v-1h110.3zm252.93 0H933.38v-1h126.18z" stroke="#333" stroke-width=".05" fill="#333"/><path d="M1060.06 1180.5h-.52v-1h.52z" fill="#333"/><path d="M1060.08 1180.53h-.56v-1.06h.56zm-.5-1v.94h.45v-.94z" stroke="#333" stroke-width=".05" fill="#333"/><path d="M695.84 1184.64l-14.27-4.64 14.27-4.64z" fill="#333"/><path d="M696.34 1185.32l-16.4-5.32 16.4-5.32zM683.2 1180l12.14 3.95v-7.9z" stroke="#333" stroke-width=".05" fill="#333"/><use xlink:href="#N" transform="matrix(1,0,0,1,806.6297644668125,1169.2000000000003) translate(0.005000000000002558 14.4)"/><use xlink:href="#O" transform="matrix(1,0,0,1,806.6297644668125,1169.2000000000003) translate(63.85500000000001 14.4)"/><path d="M220 1185a5 5 0 0 1 5-5h30a5 5 0 0 1 5 5v50a5 5 0 0 1-5 5h-30a5 5 0 0 1-5-5z" stroke="#000" stroke-opacity="0" stroke-width="2" fill="#d2d3d5"/><path d="M341.66 1220.5h-65.3v-1h65.3zm297.9 0h-81.2v-1h81.2z" stroke="#333" stroke-width=".05" fill="#333"/><path d="M640.05 1220.5h-.5v-1h.5z" fill="#333"/><path d="M640.07 1220.53h-.56v-1.06h.57zm-.5-1v.94h.45v-.94z" stroke="#333" stroke-width=".05" fill="#333"/><path d="M275.87 1224.64L261.6 1220l14.27-4.64z" fill="#333"/><path d="M276.37 1225.32l-16.4-5.32 16.4-5.32zm-13.15-5.32l12.15 3.95v-7.9z" stroke="#333" stroke-width=".05" fill="#333"/><use xlink:href="#N" transform="matrix(1,0,0,1,341.66484525527824,1209.2) translate(0.0049999999999954525 14.4)"/><use xlink:href="#P" transform="matrix(1,0,0,1,341.66484525527824,1209.2) translate(63.855000000000004 14.4)"/><use xlink:href="#Q" transform="matrix(1,0,0,1,341.66484525527824,1209.2) translate(131.755 14.4)"/><use xlink:href="#B" transform="matrix(1,0,0,1,341.66484525527824,1209.2) translate(151.755 14.4)"/><use xlink:href="#R" transform="matrix(1,0,0,1,341.66484525527824,1209.2) translate(181.755 14.4)"/><path d="M1060 1365a5 5 0 0 1 5-5h30a5 5 0 0 1 5 5v30a5 5 0 0 1-5 5h-30a5 5 0 0 1-5-5zM640 1365a5 5 0 0 1 5-5h30a5 5 0 0 1 5 5v190a5 5 0 0 1-5 5h-30a5 5 0 0 1-5-5z" stroke="#000" stroke-opacity="0" stroke-width="2" fill="#d2d3d5"/><path d="M750.04 1380.52l-53.7.02v-1l53.7-.02zm309.5-.02h-69.6v-1h69.6z" stroke="#333" stroke-width=".05" fill="#333"/><path d="M1060.03 1380.5h-.5v-1h.5z" fill="#333"/><path d="M1060.06 1380.53h-.57v-1.06h.55zm-.52-1v.94h.47v-.94z" stroke="#333" stroke-width=".05" fill="#333"/><path d="M695.83 1384.67l-14.27-4.63 14.27-4.64z" fill="#333"/><path d="M696.33 1385.36l-16.4-5.32 16.4-5.33zm-13.15-5.32l12.15 3.94v-7.9z" stroke="#333" stroke-width=".05" fill="#333"/><use xlink:href="#C" transform="matrix(1,0,0,1,750.036753014097,1369.2175965370477) translate(0.0049999999999954525 14.4)"/><use xlink:href="#D" transform="matrix(1,0,0,1,750.036753014097,1369.2175965370477) translate(30.004999999999995 14.4)"/><use xlink:href="#E" transform="matrix(1,0,0,1,750.036753014097,1369.2175965370477) translate(68.005 14.4)"/><use xlink:href="#S" transform="matrix(1,0,0,1,750.036753014097,1369.2175965370477) translate(85.955 14.4)"/><use xlink:href="#Q" transform="matrix(1,0,0,1,750.036753014097,1369.2175965370477) translate(159.95499999999998 14.4)"/><use xlink:href="#T" transform="matrix(1,0,0,1,750.036753014097,1369.2175965370477) translate(179.95499999999998 14.4)"/><use xlink:href="#R" transform="matrix(1,0,0,1,750.036753014097,1369.2175965370477) translate(204.95499999999998 14.4)"/><path d="M639.52 1413.7h-27.5a12 12 0 0 0-12 12v21.57a12 12 0 0 0 12 12h11.63" stroke="#333" fill="none"/><path d="M640.02 1414.2h-.52v-1h.52z" stroke="#333" stroke-width=".05" fill="#333"/><path d="M638.4 1459.27l-14.25 4.63v-9.27z" stroke="#333" fill="#333"/><g><use xlink:href="#G" transform="matrix(1,0,0,1,357.2157354873931,1425.6910402515314) translate(0.0049999999999954525 14.4)"/><use xlink:href="#H" transform="matrix(1,0,0,1,357.2157354873931,1425.6910402515314) translate(52.004999999999995 14.4)"/><use xlink:href="#B" transform="matrix(1,0,0,1,357.2157354873931,1425.6910402515314) translate(65.955 14.4)"/><use xlink:href="#I" transform="matrix(1,0,0,1,357.2157354873931,1425.6910402515314) translate(95.955 14.4)"/><use xlink:href="#E" transform="matrix(1,0,0,1,357.2157354873931,1425.6910402515314) translate(135.905 14.4)"/><use xlink:href="#B" transform="matrix(1,0,0,1,357.2157354873931,1425.6910402515314) translate(153.855 14.4)"/><use xlink:href="#U" transform="matrix(1,0,0,1,357.2157354873931,1425.6910402515314) translate(183.855 14.4)"/></g><path d="M220 1515a5 5 0 0 1 5-5h30a5 5 0 0 1 5 5v110a5 5 0 0 1-5 5h-30a5 5 0 0 1-5-5z" stroke="#000" stroke-opacity="0" stroke-width="2" fill="#d2d3d5"/><path d="M639.54 1529.5v1h-90.12v-1zm-288.97 0v1h-74.24v-1zM640.04 1530.5h-.5v-1h.5z" stroke="#333" stroke-width=".05" fill="#333"/><path d="M275.83 1534.63l-14.26-4.63 14.26-4.64z" fill="#333"/><path d="M276.33 1535.32l-16.38-5.32 16.38-5.33zm-13.15-5.32l12.15 3.94v-7.9z" stroke="#333" stroke-width=".05" fill="#333"/><g><use xlink:href="#C" transform="matrix(1,0,0,1,350.5696746612714,1519.1976665080417) translate(0.0049999999999954525 14.4)"/><use xlink:href="#I" transform="matrix(1,0,0,1,350.5696746612714,1519.1976665080417) translate(30.004999999999995 14.4)"/><use xlink:href="#E" transform="matrix(1,0,0,1,350.5696746612714,1519.1976665080417) translate(69.955 14.4)"/><use xlink:href="#K" transform="matrix(1,0,0,1,350.5696746612714,1519.1976665080417) translate(87.905 14.4)"/><use xlink:href="#B" transform="matrix(1,0,0,1,350.5696746612714,1519.1976665080417) translate(117.905 14.4)"/><use xlink:href="#U" transform="matrix(1,0,0,1,350.5696746612714,1519.1976665080417) translate(147.905 14.4)"/></g><path d="M260.47 1570H288a12 12 0 0 1 12 12v19.78a12 12 0 0 1-12 12h-11.62" stroke="#333" fill="none"/><path d="M260.48 1570.5h-.5v-1h.5z" stroke="#333" stroke-width=".05" fill="#333"/><path d="M261.6 1613.78l14.28-4.64v9.27z" stroke="#333" fill="#333"/><g><use xlink:href="#L" transform="matrix(1,0,0,1,307.9937563810262,1581.0774371289856) translate(0.0049999999999954525 14.4)"/><use xlink:href="#M" transform="matrix(1,0,0,1,307.9937563810262,1581.0774371289856) translate(79.905 14.4)"/></g><path d="M785.58 1640.5h-105.1v-1h105.1zm258.06 0h-89.2v-1h89.2z" stroke="#333" stroke-width=".05" fill="#333"/><path d="M680.5 1640.5h-.5v-1h.5z" stroke="#333" stroke-width=".05" fill="#333"/><path d="M1058.4 1640l-14.26 4.62v-9.27z" fill="#333"/><path d="M1060.03 1640l-16.4 5.3v-10.64zm-15.4 3.93l12.16-3.94-12.16-3.96z" stroke="#333" stroke-width=".05" fill="#333"/><g><use xlink:href="#C" transform="matrix(1,0,0,1,785.5825593049208,1629.1850127312182) translate(0.0049999999999954525 14.4)"/><use xlink:href="#I" transform="matrix(1,0,0,1,785.5825593049208,1629.1850127312182) translate(30.004999999999995 14.4)"/><use xlink:href="#E" transform="matrix(1,0,0,1,785.5825593049208,1629.1850127312182) translate(69.955 14.4)"/><use xlink:href="#B" transform="matrix(1,0,0,1,785.5825593049208,1629.1850127312182) translate(87.905 14.4)"/><use xlink:href="#U" transform="matrix(1,0,0,1,785.5825593049208,1629.1850127312182) translate(117.905 14.4)"/></g><path d="M1060 1545a5 5 0 0 1 5-5h30a5 5 0 0 1 5 5v230a5 5 0 0 1-5 5h-30a5 5 0 0 1-5-5z" stroke="#000" stroke-opacity="0" stroke-width="2" fill="#d2d3d5"/><path d="M1059.54 1680h-27.5a12 12 0 0 0-12 12v16.23a12 12 0 0 0 12 12h11.62" stroke="#333" fill="none"/><path d="M1060.04 1680.5h-.52v-1h.52z" stroke="#333" stroke-width=".05" fill="#333"/><path d="M1058.43 1720.23l-14.27 4.63v-9.27z" stroke="#333" fill="#333"/><g><use xlink:href="#x" transform="matrix(1,0,0,1,895.0860600489273,1689.32079896961) translate(0.005000000000002558 14.4)"/><use xlink:href="#B" transform="matrix(1,0,0,1,895.0860600489273,1689.32079896961) translate(53.955000000000005 14.4)"/><use xlink:href="#z" transform="matrix(1,0,0,1,895.0860600489273,1689.32079896961) translate(83.95500000000001 14.4)"/></g><path d="M640 1745a5 5 0 0 1 5-5h30a5 5 0 0 1 5 5v70a5 5 0 0 1-5 5h-30a5 5 0 0 1-5-5z" stroke="#000" stroke-opacity="0" stroke-width="2" fill="#d2d3d5"/><path d="M806.63 1760.5h-110.3v-1h110.3zm252.93 0H933.38v-1h126.18z" stroke="#333" stroke-width=".05" fill="#333"/><path d="M1060.06 1760.5h-.52v-1h.52z" fill="#333"/><path d="M1060.08 1760.53h-.56v-1.06h.56zm-.5-1v.94h.45v-.94z" stroke="#333" stroke-width=".05" fill="#333"/><path d="M695.84 1764.64l-14.27-4.64 14.27-4.64z" fill="#333"/><path d="M696.34 1765.32l-16.4-5.32 16.4-5.32zM683.2 1760l12.14 3.95v-7.9z" stroke="#333" stroke-width=".05" fill="#333"/><g><use xlink:href="#N" transform="matrix(1,0,0,1,806.6297644668125,1749.2000000000003) translate(0.005000000000002558 14.4)"/><use xlink:href="#O" transform="matrix(1,0,0,1,806.6297644668125,1749.2000000000003) translate(63.85500000000001 14.4)"/></g><path d="M220 1785a5 5 0 0 1 5-5h30a5 5 0 0 1 5 5v30a5 5 0 0 1-5 5h-30a5 5 0 0 1-5-5z" stroke="#000" stroke-opacity="0" stroke-width="2" fill="#d2d3d5"/><path d="M341.66 1800.5h-65.3v-1h65.3zm297.9 0h-81.2v-1h81.2z" stroke="#333" stroke-width=".05" fill="#333"/><path d="M640.05 1800.5h-.5v-1h.5z" fill="#333"/><path d="M640.07 1800.53h-.56v-1.06h.57zm-.5-1v.94h.45v-.94z" stroke="#333" stroke-width=".05" fill="#333"/><path d="M275.85 1804.64L261.6 1800l14.25-4.64z" fill="#333"/><path d="M276.35 1805.32l-16.38-5.32 16.38-5.32zM263.2 1800l12.15 3.95v-7.9z" stroke="#333" stroke-width=".05" fill="#333"/><g><use xlink:href="#N" transform="matrix(1,0,0,1,341.65893012133154,1789.2) translate(0.0049999999999954525 14.4)"/><use xlink:href="#P" transform="matrix(1,0,0,1,341.65893012133154,1789.2) translate(63.855000000000004 14.4)"/><use xlink:href="#Q" transform="matrix(1,0,0,1,341.65893012133154,1789.2) translate(131.755 14.4)"/><use xlink:href="#B" transform="matrix(1,0,0,1,341.65893012133154,1789.2) translate(151.755 14.4)"/><use xlink:href="#R" transform="matrix(1,0,0,1,341.65893012133154,1789.2) translate(181.755 14.4)"/></g><path d="M640 1045a5 5 0 0 1 5-5h30a5 5 0 0 1 5 5v30a5 5 0 0 1-5 5h-30a5 5 0 0 1-5-5zM640 1625a5 5 0 0 1 5-5h30a5 5 0 0 1 5 5v30a5 5 0 0 1-5 5h-30a5 5 0 0 1-5-5z" stroke="#000" stroke-opacity="0" stroke-width="2" fill="#d2d3d5"/><g class="lucid-layer" lucid:layer-id="BgMnNTC~Jhkj" display="block"><path d="M100 448a8 8 0 0 1 8-8h84a8 8 0 0 1 8 8v4.93a17.07 17.07 0 0 1-5 12.07 17.07 17.07 0 0 1-12.07 5H108a8 8 0 0 1-8-8z" fill="#fff"/><path d="M200 440v20l-10 10h-90" stroke="#333" fill="none"/><path d="M100 448a8 8 0 0 1 8-8h624a8 8 0 0 1 8 8v164a8 8 0 0 1-8 8H108a8 8 0 0 1-8-8z" stroke="#333" fill="none"/><use xlink:href="#V" transform="matrix(1,0,0,1,108,440) translate(31.525 18.6)"/><path d="M100 788a8 8 0 0 1 8-8h84a8 8 0 0 1 8 8v4.93a17.07 17.07 0 0 1-5 12.07 17.07 17.07 0 0 1-12.07 5H108a8 8 0 0 1-8-8z" fill="#fff"/><path d="M200 780v20l-10 10h-90" stroke="#333" fill="none"/><path d="M100 788a8 8 0 0 1 8-8h1064a8 8 0 0 1 8 8v484a8 8 0 0 1-8 8H108a8 8 0 0 1-8-8z" stroke="#333" fill="none"/><use xlink:href="#V" transform="matrix(1,0,0,1,108,780) translate(31.525 18.6)"/><path d="M120 928a8 8 0 0 1 8-8h84a8 8 0 0 1 8 8v4.93a17.07 17.07 0 0 1-5 12.07 17.07 17.07 0 0 1-12.07 5H128a8 8 0 0 1-8-8z" fill="#fff"/><path d="M220 920v20l-10 10h-90" stroke="#333" fill="none"/><path d="M120 928a8 8 0 0 1 8-8h984a8 8 0 0 1 8 8v324a8 8 0 0 1-8 8H128a8 8 0 0 1-8-8z" stroke="#333" fill="none"/><use xlink:href="#V" transform="matrix(1,0,0,1,128,920) translate(31.525 18.6)"/><path d="M100 1328a8 8 0 0 1 8-8h84a8 8 0 0 1 8 8v4.93a17.07 17.07 0 0 1-5 12.07 17.07 17.07 0 0 1-12.07 5H108a8 8 0 0 1-8-8z" fill="#fff"/><path d="M200 1320v20l-10 10h-90" stroke="#333" fill="none"/><path d="M100 1328a8 8 0 0 1 8-8h1064a8 8 0 0 1 8 8v524a8 8 0 0 1-8 8H108a8 8 0 0 1-8-8z" stroke="#333" fill="none"/><use xlink:href="#V" transform="matrix(1,0,0,1,108,1320) translate(31.525 18.6)"/><path d="M120 1488a8 8 0 0 1 8-8h84a8 8 0 0 1 8 8v4.93a17.07 17.07 0 0 1-5 12.07 17.07 17.07 0 0 1-12.07 5H128a8 8 0 0 1-8-8z" fill="#fff"/><path d="M220 1480v20l-10 10h-90" stroke="#333" fill="none"/><path d="M120 1488a8 8 0 0 1 8-8h984a8 8 0 0 1 8 8v344a8 8 0 0 1-8 8H128a8 8 0 0 1-8-8z" stroke="#333" fill="none"/><use xlink:href="#V" transform="matrix(1,0,0,1,128,1480) translate(31.525 18.6)"/></g><defs><path fill="#333" d="M232-93c-1 65-40 97-104 97C67 4 28-28 28-90v-158h33c8 89-33 224 67 224 102 0 64-133 71-224h33v155" id="W"/><path fill="#333" d="M135-143c-3-34-86-38-87 0 15 53 115 12 119 90S17 21 10-45l28-5c4 36 97 45 98 0-10-56-113-15-118-90-4-57 82-63 122-42 12 7 21 19 24 35" id="X"/><path fill="#333" d="M100-194c63 0 86 42 84 106H49c0 40 14 67 53 68 26 1 43-12 49-29l28 8c-11 28-37 45-77 45C44 4 14-33 15-96c1-61 26-98 85-98zm52 81c6-60-76-77-97-28-3 7-6 17-6 28h103" id="Y"/><path fill="#333" d="M114-163C36-179 61-72 57 0H25l-1-190h30c1 12-1 29 2 39 6-27 23-49 58-41v29" id="Z"/><g id="a"><use transform="matrix(0.05,0,0,0.05,0,0)" xlink:href="#W"/><use transform="matrix(0.05,0,0,0.05,12.950000000000001,0)" xlink:href="#X"/><use transform="matrix(0.05,0,0,0.05,21.950000000000003,0)" xlink:href="#Y"/><use transform="matrix(0.05,0,0,0.05,31.950000000000003,0)" xlink:href="#Z"/></g><path fill="#333" d="M205 0l-28-72H64L36 0H1l101-248h38L239 0h-34zm-38-99l-47-123c-12 45-31 82-46 123h93" id="aa"/><path fill="#333" d="M115-194c55 1 70 41 70 98S169 2 115 4C84 4 66-9 55-30l1 105H24l-1-265h31l2 30c10-21 28-34 59-34zm-8 174c40 0 45-34 45-75s-6-73-45-74c-42 0-51 32-51 76 0 43 10 73 51 73" id="ab"/><path fill="#333" d="M24 0v-261h32V0H24" id="ac"/><path fill="#333" d="M24-231v-30h32v30H24zM24 0v-190h32V0H24" id="ad"/><path fill="#333" d="M96-169c-40 0-48 33-48 73s9 75 48 75c24 0 41-14 43-38l32 2c-6 37-31 61-74 61-59 0-76-41-82-99-10-93 101-131 147-64 4 7 5 14 7 22l-32 3c-4-21-16-35-41-35" id="ae"/><path fill="#333" d="M141-36C126-15 110 5 73 4 37 3 15-17 15-53c-1-64 63-63 125-63 3-35-9-54-41-54-24 1-41 7-42 31l-33-3c5-37 33-52 76-52 45 0 72 20 72 64v82c-1 20 7 32 28 27v20c-31 9-61-2-59-35zM48-53c0 20 12 33 32 33 41-3 63-29 60-74-43 2-92-5-92 41" id="af"/><path fill="#333" d="M59-47c-2 24 18 29 38 22v24C64 9 27 4 27-40v-127H5v-23h24l9-43h21v43h35v23H59v120" id="ag"/><path fill="#333" d="M100-194c62-1 85 37 85 99 1 63-27 99-86 99S16-35 15-95c0-66 28-99 85-99zM99-20c44 1 53-31 53-75 0-43-8-75-51-75s-53 32-53 75 10 74 51 75" id="ah"/><path fill="#333" d="M117-194c89-4 53 116 60 194h-32v-121c0-31-8-49-39-48C34-167 62-67 57 0H25l-1-190h30c1 10-1 24 2 32 11-22 29-35 61-36" id="ai"/><g id="b"><use transform="matrix(0.05,0,0,0.05,0,0)" xlink:href="#aa"/><use transform="matrix(0.05,0,0,0.05,12,0)" xlink:href="#ab"/><use transform="matrix(0.05,0,0,0.05,22,0)" xlink:href="#ab"/><use transform="matrix(0.05,0,0,0.05,32,0)" xlink:href="#ac"/><use transform="matrix(0.05,0,0,0.05,35.95,0)" xlink:href="#ad"/><use transform="matrix(0.05,0,0,0.05,39.900000000000006,0)" xlink:href="#ae"/><use transform="matrix(0.05,0,0,0.05,48.900000000000006,0)" xlink:href="#af"/><use transform="matrix(0.05,0,0,0.05,58.900000000000006,0)" xlink:href="#ag"/><use transform="matrix(0.05,0,0,0.05,63.900000000000006,0)" xlink:href="#ad"/><use transform="matrix(0.05,0,0,0.05,67.85000000000001,0)" xlink:href="#ah"/><use transform="matrix(0.05,0,0,0.05,77.85000000000001,0)" xlink:href="#ai"/></g><path fill="#333" d="M30-248c118-7 216 8 213 122C240-48 200 0 122 0H30v-248zM63-27c89 8 146-16 146-99s-60-101-146-95v194" id="aj"/><path fill="#333" d="M115-194c53 0 69 39 70 98 0 66-23 100-70 100C84 3 66-7 56-30L54 0H23l1-261h32v101c10-23 28-34 59-34zm-8 174c40 0 45-34 45-75 0-40-5-75-45-74-42 0-51 32-51 76 0 43 10 73 51 73" id="ak"/><g id="c"><use transform="matrix(0.05,0,0,0.05,0,0)" xlink:href="#aj"/><use transform="matrix(0.05,0,0,0.05,12.950000000000001,0)" xlink:href="#af"/><use transform="matrix(0.05,0,0,0.05,22.950000000000003,0)" xlink:href="#ag"/><use transform="matrix(0.05,0,0,0.05,27.950000000000003,0)" xlink:href="#af"/><use transform="matrix(0.05,0,0,0.05,37.95,0)" xlink:href="#ak"/><use transform="matrix(0.05,0,0,0.05,47.95,0)" xlink:href="#af"/><use transform="matrix(0.05,0,0,0.05,57.95,0)" xlink:href="#X"/><use transform="matrix(0.05,0,0,0.05,66.95,0)" xlink:href="#Y"/></g><path fill="#b2b2b2" d="M169-182c-1-43-94-46-97-3 18 66 151 10 154 114 3 95-165 93-204 36-6-8-10-19-12-30l50-8c3 46 112 56 116 5-17-69-150-10-154-114-4-87 153-88 188-35 5 8 8 18 10 28" id="al"/><path fill="#b2b2b2" d="M185-48c-13 30-37 53-82 52C43 2 14-33 14-96s30-98 90-98c62 0 83 45 84 108H66c0 31 8 55 39 56 18 0 30-7 34-22zm-45-69c5-46-57-63-70-21-2 6-4 13-4 21h74" id="am"/><path fill="#b2b2b2" d="M84 4C32 4 15-41 15-95c0-55 18-99 73-99 29 0 47 12 58 34l2-30h48l-1 265h-49V-32C136-9 114 4 84 4zm21-34c32 0 41-29 41-66 0-36-9-64-40-64-33 0-39 30-40 65 0 43 13 65 39 65" id="an"/><path fill="#b2b2b2" d="M85 4C-2 5 27-109 22-190h50c7 57-23 150 33 157 60-5 35-97 40-157h50l1 190h-47c-2-12 1-28-3-38-12 25-28 42-61 42" id="ao"/><path fill="#b2b2b2" d="M135-194c87-1 58 113 63 194h-50c-7-57 23-157-34-157-59 0-34 97-39 157H25l-1-190h47c2 12-1 28 3 38 12-26 28-41 61-42" id="ap"/><path fill="#b2b2b2" d="M190-63c-7 42-38 67-86 67-59 0-84-38-90-98-12-110 154-137 174-36l-49 2c-2-19-15-32-35-32-30 0-35 28-38 64-6 74 65 87 74 30" id="aq"/><g id="d"><use transform="matrix(0.0728395061728395,0,0,0.0728395061728395,0,0)" xlink:href="#al"/><use transform="matrix(0.0728395061728395,0,0,0.0728395061728395,17.48148148148148,0)" xlink:href="#am"/><use transform="matrix(0.0728395061728395,0,0,0.0728395061728395,32.04938271604938,0)" xlink:href="#an"/><use transform="matrix(0.0728395061728395,0,0,0.0728395061728395,48.00123456790123,0)" xlink:href="#ao"/><use transform="matrix(0.0728395061728395,0,0,0.0728395061728395,63.95308641975308,0)" xlink:href="#am"/><use transform="matrix(0.0728395061728395,0,0,0.0728395061728395,78.52098765432098,0)" xlink:href="#ap"/><use transform="matrix(0.0728395061728395,0,0,0.0728395061728395,94.47283950617283,0)" xlink:href="#aq"/><use transform="matrix(0.0728395061728395,0,0,0.0728395061728395,109.04074074074072,0)" xlink:href="#am"/></g><path fill="#b2b2b2" d="M88-194c31-1 46 15 58 34l-1-101h50l1 261h-48c-2-10 0-23-3-31C134-8 116 4 84 4 32 4 16-41 15-95c0-56 19-97 73-99zm17 164c33 0 40-30 41-66 1-37-9-64-41-64s-38 30-39 65c0 43 13 65 39 65" id="ar"/><path fill="#b2b2b2" d="M25-224v-37h50v37H25zM25 0v-190h50V0H25" id="as"/><path fill="#b2b2b2" d="M133-34C117-15 103 5 69 4 32 3 11-16 11-54c-1-60 55-63 116-61 1-26-3-47-28-47-18 1-26 9-28 27l-52-2c7-38 36-58 82-57s74 22 75 68l1 82c-1 14 12 18 25 15v27c-30 8-71 5-69-32zm-48 3c29 0 43-24 42-57-32 0-66-3-65 30 0 17 8 27 23 27" id="at"/><path fill="#b2b2b2" d="M195-6C206 82 75 100 31 46c-4-6-6-13-8-21l49-6c3 16 16 24 34 25 40 0 42-37 40-79-11 22-30 35-61 35-53 0-70-43-70-97 0-56 18-96 73-97 30 0 46 14 59 34l2-30h47zm-90-29c32 0 41-27 41-63 0-35-9-62-40-62-32 0-39 29-40 63 0 36 9 62 39 62" id="au"/><path fill="#b2b2b2" d="M135-150c-39-12-60 13-60 57V0H25l-1-190h47c2 13-1 29 3 40 6-28 27-53 61-41v41" id="av"/><path fill="#b2b2b2" d="M220-157c-53 9-28 100-34 157h-49v-107c1-27-5-49-29-50C55-147 81-57 75 0H25l-1-190h47c2 12-1 28 3 38 10-53 101-56 108 0 13-22 24-43 59-42 82 1 51 116 57 194h-49v-107c-1-25-5-48-29-50" id="aw"/><path fill="#b2b2b2" d="M35-132v-50h50v50H35zM35 0v-49h50V0H35" id="ax"/><g id="e"><use transform="matrix(0.0728395061728395,0,0,0.0728395061728395,0,0)" xlink:href="#ar"/><use transform="matrix(0.0728395061728395,0,0,0.0728395061728395,15.95185185185185,0)" xlink:href="#as"/><use transform="matrix(0.0728395061728395,0,0,0.0728395061728395,23.235802469135802,0)" xlink:href="#at"/><use transform="matrix(0.0728395061728395,0,0,0.0728395061728395,37.803703703703704,0)" xlink:href="#au"/><use transform="matrix(0.0728395061728395,0,0,0.0728395061728395,53.75555555555555,0)" xlink:href="#av"/><use transform="matrix(0.0728395061728395,0,0,0.0728395061728395,63.953086419753085,0)" xlink:href="#at"/><use transform="matrix(0.0728395061728395,0,0,0.0728395061728395,78.52098765432099,0)" xlink:href="#aw"/><use transform="matrix(0.0728395061728395,0,0,0.0728395061728395,101.82962962962965,0)" xlink:href="#ax"/></g><path fill="#b2b2b2" d="M115-3C79 11 28 4 28-45v-112H4v-33h27l15-45h31v45h36v33H77v99c-1 23 16 31 38 25v30" id="ay"/><path fill="#b2b2b2" d="M137-138c1-29-70-34-71-4 15 46 118 7 119 86 1 83-164 76-172 9l43-7c4 19 20 25 44 25 33 8 57-30 24-41C81-84 22-81 20-136c-2-80 154-74 161-7" id="az"/><path fill="#b2b2b2" d="M147 0L96-86 75-71V0H25v-261h50v150l67-79h53l-66 74L201 0h-54" id="aA"/><g id="f"><use transform="matrix(0.0728395061728395,0,0,0.0728395061728395,0,0)" xlink:href="#ay"/><use transform="matrix(0.0728395061728395,0,0,0.0728395061728395,8.667901234567902,0)" xlink:href="#at"/><use transform="matrix(0.0728395061728395,0,0,0.0728395061728395,23.235802469135802,0)" xlink:href="#az"/><use transform="matrix(0.0728395061728395,0,0,0.0728395061728395,37.803703703703704,0)" xlink:href="#aA"/></g><path fill="#b2b2b2" d="M25 0v-261h50V0H25" id="aB"/><path fill="#b2b2b2" d="M110-194c64 0 96 36 96 99 0 64-35 99-97 99-61 0-95-36-95-99 0-62 34-99 96-99zm-1 164c35 0 45-28 45-65 0-40-10-65-43-65-34 0-45 26-45 65 0 36 10 65 43 65" id="aC"/><g id="g"><use transform="matrix(0.0728395061728395,0,0,0.0728395061728395,0,0)" xlink:href="#ar"/><use transform="matrix(0.0728395061728395,0,0,0.0728395061728395,15.95185185185185,0)" xlink:href="#am"/><use transform="matrix(0.0728395061728395,0,0,0.0728395061728395,30.51975308641975,0)" xlink:href="#aB"/><use transform="matrix(0.0728395061728395,0,0,0.0728395061728395,37.803703703703704,0)" xlink:href="#am"/><use transform="matrix(0.0728395061728395,0,0,0.0728395061728395,52.3716049382716,0)" xlink:href="#ay"/><use transform="matrix(0.0728395061728395,0,0,0.0728395061728395,61.0395061728395,0)" xlink:href="#as"/><use transform="matrix(0.0728395061728395,0,0,0.0728395061728395,68.32345679012346,0)" xlink:href="#aC"/><use transform="matrix(0.0728395061728395,0,0,0.0728395061728395,84.2753086419753,0)" xlink:href="#ap"/></g><path fill="#b2b2b2" d="M137-103V0h-34v-103L8-248h37l75 118 75-118h37" id="aD"/><path fill="#b2b2b2" d="M141-36C126-15 110 5 73 4 37 3 15-17 15-53c-1-64 63-63 125-63 3-35-9-54-41-54-24 1-41 7-42 31l-33-3c5-37 33-52 76-52 45 0 72 20 72 64v82c-1 20 7 32 28 27v20c-31 9-61-2-59-35zM48-53c0 20 12 33 32 33 41-3 63-29 60-74-43 2-92-5-92 41" id="aE"/><path fill="#b2b2b2" d="M117-194c89-4 53 116 60 194h-32v-121c0-31-8-49-39-48C34-167 62-67 57 0H25l-1-190h30c1 10-1 24 2 32 11-22 29-35 61-36" id="aF"/><g id="h"><use transform="matrix(0.04248971193415638,0,0,0.04248971193415638,0,0)" xlink:href="#aD"/><use transform="matrix(0.04248971193415638,0,0,0.04248971193415638,9.050308641975308,0)" xlink:href="#aE"/><use transform="matrix(0.04248971193415638,0,0,0.04248971193415638,17.548251028806582,0)" xlink:href="#aF"/><use transform="matrix(0.04248971193415638,0,0,0.04248971193415638,26.04619341563786,0)" xlink:href="#aF"/></g><path fill="#b2b2b2" d="M137 0h-34L2-248h35l83 218 83-218h36" id="aG"/><path fill="#b2b2b2" d="M100-194c62-1 85 37 85 99 1 63-27 99-86 99S16-35 15-95c0-66 28-99 85-99zM99-20c44 1 53-31 53-75 0-43-8-75-51-75s-53 32-53 75 10 74 51 75" id="aH"/><path fill="#b2b2b2" d="M177-190C167-65 218 103 67 71c-23-6-38-20-44-43l32-5c15 47 100 32 89-28v-30C133-14 115 1 83 1 29 1 15-40 15-95c0-56 16-97 71-98 29-1 48 16 59 35 1-10 0-23 2-32h30zM94-22c36 0 50-32 50-73 0-42-14-75-50-75-39 0-46 34-46 75s6 73 46 73" id="aI"/><path fill="#b2b2b2" d="M100-194c63 0 86 42 84 106H49c0 40 14 67 53 68 26 1 43-12 49-29l28 8c-11 28-37 45-77 45C44 4 14-33 15-96c1-61 26-98 85-98zm52 81c6-60-76-77-97-28-3 7-6 17-6 28h103" id="aJ"/><path fill="#b2b2b2" d="M24 0v-261h32V0H24" id="aK"/><g id="i"><use transform="matrix(0.04248971193415638,0,0,0.04248971193415638,0,0)" xlink:href="#aG"/><use transform="matrix(0.04248971193415638,0,0,0.04248971193415638,9.347736625514402,0)" xlink:href="#aH"/><use transform="matrix(0.04248971193415638,0,0,0.04248971193415638,17.845679012345677,0)" xlink:href="#aI"/><use transform="matrix(0.04248971193415638,0,0,0.04248971193415638,26.343621399176953,0)" xlink:href="#aJ"/><use transform="matrix(0.04248971193415638,0,0,0.04248971193415638,34.84156378600823,0)" xlink:href="#aK"/></g><path fill="#b2b2b2" d="M32 76v-337h29V76H32" id="aL"/><use transform="matrix(0.04248971193415638,0,0,0.04248971193415638,0,0)" xlink:href="#aL" id="j"/><path fill="#b2b2b2" d="M153-248C145-148 188 4 80 4 36 3 13-21 6-62l32-5c4 25 16 42 43 43 27 0 39-20 39-49v-147H72v-28h81" id="aM"/><path fill="#b2b2b2" d="M84 4C-5 8 30-112 23-190h32v120c0 31 7 50 39 49 72-2 45-101 50-169h31l1 190h-30c-1-10 1-25-2-33-11 22-28 36-60 37" id="aN"/><g id="k"><use transform="matrix(0.04248971193415638,0,0,0.04248971193415638,0,0)" xlink:href="#aM"/><use transform="matrix(0.04248971193415638,0,0,0.04248971193415638,7.648148148148148,0)" xlink:href="#aN"/><use transform="matrix(0.04248971193415638,0,0,0.04248971193415638,16.14609053497942,0)" xlink:href="#aF"/><use transform="matrix(0.04248971193415638,0,0,0.04248971193415638,24.644032921810698,0)" xlink:href="#aJ"/></g><path fill="#b2b2b2" d="M134-131c28 9 52 24 51 62-1 50-34 73-85 73S17-19 16-69c0-36 21-54 49-61-75-25-45-126 34-121 46 3 78 18 79 63 0 33-17 51-44 57zm-34-11c31 1 46-15 46-44 0-28-17-43-47-42-29 0-46 13-45 42 1 28 16 44 46 44zm1 122c35 0 51-18 51-52 0-30-18-46-53-46-33 0-51 17-51 47 0 34 19 51 53 51" id="aO"/><path fill="#b2b2b2" d="M68-38c1 34 0 65-14 84H32c9-13 17-26 17-46H33v-38h35" id="aP"/><g id="l"><use transform="matrix(0.04248971193415638,0,0,0.04248971193415638,0,0)" xlink:href="#aO"/><use transform="matrix(0.04248971193415638,0,0,0.04248971193415638,8.497942386831275,0)" xlink:href="#aP"/></g><path fill="#b2b2b2" d="M101-251c82-7 93 87 43 132L82-64C71-53 59-42 53-27h129V0H18c2-99 128-94 128-182 0-28-16-43-45-43s-46 15-49 41l-32-3c6-41 34-60 81-64" id="aQ"/><path fill="#b2b2b2" d="M101-251c68 0 85 55 85 127S166 4 100 4C33 4 14-52 14-124c0-73 17-127 87-127zm-1 229c47 0 54-49 54-102s-4-102-53-102c-51 0-55 48-55 102 0 53 5 102 54 102" id="aR"/><g id="m"><use transform="matrix(0.04248971193415638,0,0,0.04248971193415638,0,0)" xlink:href="#aQ"/><use transform="matrix(0.04248971193415638,0,0,0.04248971193415638,8.497942386831275,0)" xlink:href="#aR"/><use transform="matrix(0.04248971193415638,0,0,0.04248971193415638,16.99588477366255,0)" xlink:href="#aQ"/><use transform="matrix(0.04248971193415638,0,0,0.04248971193415638,25.493827160493822,0)" xlink:href="#aQ"/></g><g id="n"><use transform="matrix(0.05,0,0,0.05,0,0)" xlink:href="#ae"/><use transform="matrix(0.05,0,0,0.05,9,0)" xlink:href="#ah"/><use transform="matrix(0.05,0,0,0.05,19,0)" xlink:href="#ai"/><use transform="matrix(0.05,0,0,0.05,29,0)" xlink:href="#ai"/><use transform="matrix(0.05,0,0,0.05,39,0)" xlink:href="#Y"/><use transform="matrix(0.05,0,0,0.05,49,0)" xlink:href="#ae"/><use transform="matrix(0.05,0,0,0.05,58,0)" xlink:href="#ag"/><use transform="matrix(0.05,0,0,0.05,63,0)" xlink:href="#ad"/><use transform="matrix(0.05,0,0,0.05,66.95,0)" xlink:href="#ah"/><use transform="matrix(0.05,0,0,0.05,76.95,0)" xlink:href="#ai"/></g><path fill="#333" d="M177-190C167-65 218 103 67 71c-23-6-38-20-44-43l32-5c15 47 100 32 89-28v-30C133-14 115 1 83 1 29 1 15-40 15-95c0-56 16-97 71-98 29-1 48 16 59 35 1-10 0-23 2-32h30zM94-22c36 0 50-32 50-73 0-42-14-75-50-75-39 0-46 34-46 75s6 73 46 73" id="aS"/><g id="o"><use transform="matrix(0.05,0,0,0.05,0,0)" xlink:href="#ac"/><use transform="matrix(0.05,0,0,0.05,3.95,0)" xlink:href="#ah"/><use transform="matrix(0.05,0,0,0.05,13.949999999999998,0)" xlink:href="#aS"/></g><path fill="#333" d="M210-169c-67 3-38 105-44 169h-31v-121c0-29-5-50-35-48C34-165 62-65 56 0H25l-1-190h30c1 10-1 24 2 32 10-44 99-50 107 0 11-21 27-35 58-36 85-2 47 119 55 194h-31v-121c0-29-5-49-35-48" id="aT"/><g id="p"><use transform="matrix(0.05,0,0,0.05,0,0)" xlink:href="#ae"/><use transform="matrix(0.05,0,0,0.05,9,0)" xlink:href="#ah"/><use transform="matrix(0.05,0,0,0.05,19,0)" xlink:href="#aT"/><use transform="matrix(0.05,0,0,0.05,33.95,0)" xlink:href="#ab"/><use transform="matrix(0.05,0,0,0.05,43.95,0)" xlink:href="#af"/><use transform="matrix(0.05,0,0,0.05,53.95,0)" xlink:href="#Z"/><use transform="matrix(0.05,0,0,0.05,59.900000000000006,0)" xlink:href="#ad"/><use transform="matrix(0.05,0,0,0.05,63.85,0)" xlink:href="#X"/><use transform="matrix(0.05,0,0,0.05,72.85000000000001,0)" xlink:href="#ah"/><use transform="matrix(0.05,0,0,0.05,82.85000000000001,0)" xlink:href="#ai"/></g><path fill="#333" d="M84 4C-5 8 30-112 23-190h32v120c0 31 7 50 39 49 72-2 45-101 50-169h31l1 190h-30c-1-10 1-25-2-33-11 22-28 36-60 37" id="aU"/><g id="q"><use transform="matrix(0.05,0,0,0.05,0,0)" xlink:href="#Z"/><use transform="matrix(0.05,0,0,0.05,5.95,0)" xlink:href="#Y"/><use transform="matrix(0.05,0,0,0.05,15.949999999999998,0)" xlink:href="#ag"/><use transform="matrix(0.05,0,0,0.05,20.95,0)" xlink:href="#aU"/><use transform="matrix(0.05,0,0,0.05,30.950000000000003,0)" xlink:href="#Z"/><use transform="matrix(0.05,0,0,0.05,36.9,0)" xlink:href="#ai"/><use transform="matrix(0.05,0,0,0.05,46.9,0)" xlink:href="#X"/></g><g id="r"><use transform="matrix(0.05,0,0,0.05,0,0)" xlink:href="#Z"/><use transform="matrix(0.05,0,0,0.05,5.95,0)" xlink:href="#Y"/><use transform="matrix(0.05,0,0,0.05,15.949999999999998,0)" xlink:href="#X"/><use transform="matrix(0.05,0,0,0.05,24.95,0)" xlink:href="#aU"/><use transform="matrix(0.05,0,0,0.05,34.95,0)" xlink:href="#ac"/><use transform="matrix(0.05,0,0,0.05,38.900000000000006,0)" xlink:href="#ag"/></g><path fill="#333" d="M206 0h-36l-40-164L89 0H53L-1-190h32L70-26l43-164h34l41 164 42-164h31" id="aV"/><g id="s"><use transform="matrix(0.05,0,0,0.05,0,0)" xlink:href="#aV"/><use transform="matrix(0.05,0,0,0.05,12.950000000000001,0)" xlink:href="#Z"/><use transform="matrix(0.05,0,0,0.05,18.900000000000002,0)" xlink:href="#ah"/><use transform="matrix(0.05,0,0,0.05,28.900000000000002,0)" xlink:href="#ai"/><use transform="matrix(0.05,0,0,0.05,38.900000000000006,0)" xlink:href="#aS"/></g><g id="t"><use transform="matrix(0.05,0,0,0.05,0,0)" xlink:href="#ac"/><use transform="matrix(0.05,0,0,0.05,3.95,0)" xlink:href="#ah"/><use transform="matrix(0.05,0,0,0.05,13.949999999999998,0)" xlink:href="#aS"/><use transform="matrix(0.05,0,0,0.05,23.95,0)" xlink:href="#X"/></g><g id="u"><use transform="matrix(0.05,0,0,0.05,0,0)" xlink:href="#ae"/><use transform="matrix(0.05,0,0,0.05,9,0)" xlink:href="#ah"/><use transform="matrix(0.05,0,0,0.05,19,0)" xlink:href="#Z"/><use transform="matrix(0.05,0,0,0.05,24.95,0)" xlink:href="#Z"/><use transform="matrix(0.05,0,0,0.05,30.899999999999995,0)" xlink:href="#Y"/><use transform="matrix(0.05,0,0,0.05,40.9,0)" xlink:href="#ae"/><use transform="matrix(0.05,0,0,0.05,49.9,0)" xlink:href="#ag"/></g><path fill="#333" d="M68-38c1 34 0 65-14 84H32c9-13 17-26 17-46H33v-38h35" id="aW"/><g id="v"><use transform="matrix(0.05,0,0,0.05,0,0)" xlink:href="#ac"/><use transform="matrix(0.05,0,0,0.05,3.95,0)" xlink:href="#ah"/><use transform="matrix(0.05,0,0,0.05,13.949999999999998,0)" xlink:href="#aS"/><use transform="matrix(0.05,0,0,0.05,23.95,0)" xlink:href="#X"/><use transform="matrix(0.05,0,0,0.05,32.95,0)" xlink:href="#aW"/></g><path fill="#333" d="M85-194c31 0 48 13 60 33l-1-100h32l1 261h-30c-2-10 0-23-3-31C134-8 116 4 85 4 32 4 16-35 15-94c0-66 23-100 70-100zm9 24c-40 0-46 34-46 75 0 40 6 74 45 74 42 0 51-32 51-76 0-42-9-74-50-73" id="aX"/><g id="w"><use transform="matrix(0.05,0,0,0.05,0,0)" xlink:href="#ae"/><use transform="matrix(0.05,0,0,0.05,9,0)" xlink:href="#ah"/><use transform="matrix(0.05,0,0,0.05,19,0)" xlink:href="#ai"/><use transform="matrix(0.05,0,0,0.05,29,0)" xlink:href="#ai"/><use transform="matrix(0.05,0,0,0.05,39,0)" xlink:href="#Y"/><use transform="matrix(0.05,0,0,0.05,49,0)" xlink:href="#ae"/><use transform="matrix(0.05,0,0,0.05,58,0)" xlink:href="#ag"/><use transform="matrix(0.05,0,0,0.05,63,0)" xlink:href="#Y"/><use transform="matrix(0.05,0,0,0.05,73,0)" xlink:href="#aX"/></g><g id="x"><use transform="matrix(0.05,0,0,0.05,0,0)" xlink:href="#aX"/><use transform="matrix(0.05,0,0,0.05,10,0)" xlink:href="#Y"/><use transform="matrix(0.05,0,0,0.05,20,0)" xlink:href="#ac"/><use transform="matrix(0.05,0,0,0.05,23.95,0)" xlink:href="#Y"/><use transform="matrix(0.05,0,0,0.05,33.95,0)" xlink:href="#ag"/><use transform="matrix(0.05,0,0,0.05,38.95,0)" xlink:href="#Y"/></g><use transform="matrix(0.05,0,0,0.05,0,0)" xlink:href="#af" id="y"/><path fill="#333" d="M143 0L79-87 56-68V0H24v-261h32v163l83-92h37l-77 82L181 0h-38" id="aY"/><g id="z"><use transform="matrix(0.05,0,0,0.05,0,0)" xlink:href="#ag"/><use transform="matrix(0.05,0,0,0.05,5,0)" xlink:href="#af"/><use transform="matrix(0.05,0,0,0.05,15,0)" xlink:href="#X"/><use transform="matrix(0.05,0,0,0.05,24,0)" xlink:href="#aY"/></g><path fill="#333" d="M101-234c-31-9-42 10-38 44h38v23H63V0H32v-167H5v-23h27c-7-52 17-82 69-68v24" id="aZ"/><path fill="#333" d="M106-169C34-169 62-67 57 0H25v-261h32l-1 103c12-21 28-36 61-36 89 0 53 116 60 194h-32v-121c2-32-8-49-39-48" id="ba"/><g id="A"><use transform="matrix(0.05,0,0,0.05,0,0)" xlink:href="#aZ"/><use transform="matrix(0.05,0,0,0.05,5,0)" xlink:href="#Y"/><use transform="matrix(0.05,0,0,0.05,15,0)" xlink:href="#ag"/><use transform="matrix(0.05,0,0,0.05,20,0)" xlink:href="#ae"/><use transform="matrix(0.05,0,0,0.05,29,0)" xlink:href="#ba"/></g><g id="B"><use transform="matrix(0.05,0,0,0.05,0,0)" xlink:href="#ag"/><use transform="matrix(0.05,0,0,0.05,5,0)" xlink:href="#ba"/><use transform="matrix(0.05,0,0,0.05,15,0)" xlink:href="#Y"/></g><g id="C"><use transform="matrix(0.05,0,0,0.05,0,0)" xlink:href="#ag"/><use transform="matrix(0.05,0,0,0.05,5,0)" xlink:href="#ba"/><use transform="matrix(0.05,0,0,0.05,15,0)" xlink:href="#Y"/></g><g id="D"><use transform="matrix(0.05,0,0,0.05,0,0)" xlink:href="#ag"/><use transform="matrix(0.05,0,0,0.05,5,0)" xlink:href="#af"/><use transform="matrix(0.05,0,0,0.05,15,0)" xlink:href="#X"/><use transform="matrix(0.05,0,0,0.05,24,0)" xlink:href="#aY"/></g><g id="E"><use transform="matrix(0.05,0,0,0.05,0,0)" xlink:href="#ad"/><use transform="matrix(0.05,0,0,0.05,3.95,0)" xlink:href="#X"/></g><path fill="#333" d="M109-170H84l-4-78h32zm-65 0H19l-4-78h33" id="bb"/><path fill="#333" d="M179-190L93 31C79 59 56 82 12 73V49c39 6 53-20 64-50L1-190h34L92-34l54-156h33" id="bc"/><g id="F"><use transform="matrix(0.05,0,0,0.05,0,0)" xlink:href="#bb"/><use transform="matrix(0.05,0,0,0.05,6.3500000000000005,0)" xlink:href="#af"/><use transform="matrix(0.05,0,0,0.05,16.35,0)" xlink:href="#ai"/><use transform="matrix(0.05,0,0,0.05,26.35,0)" xlink:href="#ah"/><use transform="matrix(0.05,0,0,0.05,36.35,0)" xlink:href="#ai"/><use transform="matrix(0.05,0,0,0.05,46.35,0)" xlink:href="#bc"/><use transform="matrix(0.05,0,0,0.05,55.35,0)" xlink:href="#aT"/><use transform="matrix(0.05,0,0,0.05,70.3,0)" xlink:href="#ah"/><use transform="matrix(0.05,0,0,0.05,80.3,0)" xlink:href="#aU"/><use transform="matrix(0.05,0,0,0.05,90.3,0)" xlink:href="#X"/><use transform="matrix(0.05,0,0,0.05,99.3,0)" xlink:href="#bb"/></g><g id="G"><use transform="matrix(0.05,0,0,0.05,0,0)" xlink:href="#ae"/><use transform="matrix(0.05,0,0,0.05,9,0)" xlink:href="#ba"/><use transform="matrix(0.05,0,0,0.05,19,0)" xlink:href="#Y"/><use transform="matrix(0.05,0,0,0.05,29,0)" xlink:href="#ae"/><use transform="matrix(0.05,0,0,0.05,38,0)" xlink:href="#aY"/></g><g id="H"><use transform="matrix(0.05,0,0,0.05,0,0)" xlink:href="#ad"/><use transform="matrix(0.05,0,0,0.05,3.95,0)" xlink:href="#aZ"/></g><g id="I"><use transform="matrix(0.05,0,0,0.05,0,0)" xlink:href="#aU"/><use transform="matrix(0.05,0,0,0.05,10,0)" xlink:href="#X"/><use transform="matrix(0.05,0,0,0.05,19,0)" xlink:href="#Y"/><use transform="matrix(0.05,0,0,0.05,29,0)" xlink:href="#Z"/></g><path fill="#333" d="M233-177c-1 41-23 64-60 70L243 0h-38l-65-103H63V0H30v-248c88 3 205-21 203 71zM63-129c60-2 137 13 137-47 0-61-80-42-137-45v92" id="bd"/><path fill="#333" d="M140-251c81 0 123 46 123 126C263-46 219 4 140 4 59 4 17-45 17-125s42-126 123-126zm0 227c63 0 89-41 89-101s-29-99-89-99c-61 0-89 39-89 99S79-25 140-24" id="be"/><path fill="#333" d="M30 0v-248h33v221h125V0H30" id="bf"/><path fill="#333" d="M30 0v-248h187v28H63v79h144v27H63v87h162V0H30" id="bg"/><path fill="#333" d="M-5 72V49h209v23H-5" id="bh"/><path fill="#333" d="M240 0l2-218c-23 76-54 145-80 218h-23L58-218 59 0H30v-248h44l77 211c21-75 51-140 76-211h43V0h-30" id="bi"/><path fill="#333" d="M33 0v-248h34V0H33" id="bj"/><path fill="#333" d="M190 0L58-211 59 0H30v-248h39L202-35l-2-213h31V0h-41" id="bk"/><g id="J"><use transform="matrix(0.05,0,0,0.05,0,0)" xlink:href="#bd"/><use transform="matrix(0.05,0,0,0.05,12.950000000000001,0)" xlink:href="#be"/><use transform="matrix(0.05,0,0,0.05,26.950000000000003,0)" xlink:href="#bf"/><use transform="matrix(0.05,0,0,0.05,36.95,0)" xlink:href="#bg"/><use transform="matrix(0.05,0,0,0.05,48.95,0)" xlink:href="#bh"/><use transform="matrix(0.05,0,0,0.05,58.95,0)" xlink:href="#aa"/><use transform="matrix(0.05,0,0,0.05,70.95,0)" xlink:href="#aj"/><use transform="matrix(0.05,0,0,0.05,83.9,0)" xlink:href="#bi"/><use transform="matrix(0.05,0,0,0.05,98.85000000000001,0)" xlink:href="#bj"/><use transform="matrix(0.05,0,0,0.05,103.85000000000001,0)" xlink:href="#bk"/></g><g id="K"><use transform="matrix(0.05,0,0,0.05,0,0)" xlink:href="#ai"/><use transform="matrix(0.05,0,0,0.05,10,0)" xlink:href="#ah"/><use transform="matrix(0.05,0,0,0.05,20,0)" xlink:href="#ag"/></g><g id="L"><use transform="matrix(0.05,0,0,0.05,0,0)" xlink:href="#ah"/><use transform="matrix(0.05,0,0,0.05,10,0)" xlink:href="#ab"/><use transform="matrix(0.05,0,0,0.05,20,0)" xlink:href="#Y"/><use transform="matrix(0.05,0,0,0.05,30,0)" xlink:href="#Z"/><use transform="matrix(0.05,0,0,0.05,35.95,0)" xlink:href="#af"/><use transform="matrix(0.05,0,0,0.05,45.95,0)" xlink:href="#ag"/><use transform="matrix(0.05,0,0,0.05,50.95,0)" xlink:href="#ad"/><use transform="matrix(0.05,0,0,0.05,54.900000000000006,0)" xlink:href="#ah"/><use transform="matrix(0.05,0,0,0.05,64.9,0)" xlink:href="#ai"/></g><g id="M"><use transform="matrix(0.05,0,0,0.05,0,0)" xlink:href="#aX"/><use transform="matrix(0.05,0,0,0.05,10,0)" xlink:href="#Y"/><use transform="matrix(0.05,0,0,0.05,20,0)" xlink:href="#ai"/><use transform="matrix(0.05,0,0,0.05,30,0)" xlink:href="#ad"/><use transform="matrix(0.05,0,0,0.05,33.95,0)" xlink:href="#Y"/><use transform="matrix(0.05,0,0,0.05,43.95,0)" xlink:href="#aX"/></g><g id="N"><use transform="matrix(0.05,0,0,0.05,0,0)" xlink:href="#ae"/><use transform="matrix(0.05,0,0,0.05,9,0)" xlink:href="#ah"/><use transform="matrix(0.05,0,0,0.05,19,0)" xlink:href="#ai"/><use transform="matrix(0.05,0,0,0.05,29,0)" xlink:href="#aZ"/><use transform="matrix(0.05,0,0,0.05,34,0)" xlink:href="#ad"/><use transform="matrix(0.05,0,0,0.05,37.95,0)" xlink:href="#Z"/><use transform="matrix(0.05,0,0,0.05,43.900000000000006,0)" xlink:href="#aT"/></g><g id="O"><use transform="matrix(0.05,0,0,0.05,0,0)" xlink:href="#aX"/><use transform="matrix(0.05,0,0,0.05,10,0)" xlink:href="#Y"/><use transform="matrix(0.05,0,0,0.05,20,0)" xlink:href="#ac"/><use transform="matrix(0.05,0,0,0.05,23.95,0)" xlink:href="#Y"/><use transform="matrix(0.05,0,0,0.05,33.95,0)" xlink:href="#ag"/><use transform="matrix(0.05,0,0,0.05,38.95,0)" xlink:href="#ad"/><use transform="matrix(0.05,0,0,0.05,42.900000000000006,0)" xlink:href="#ah"/><use transform="matrix(0.05,0,0,0.05,52.900000000000006,0)" xlink:href="#ai"/></g><g id="P"><use transform="matrix(0.05,0,0,0.05,0,0)" xlink:href="#aX"/><use transform="matrix(0.05,0,0,0.05,10,0)" xlink:href="#Y"/><use transform="matrix(0.05,0,0,0.05,20,0)" xlink:href="#ac"/><use transform="matrix(0.05,0,0,0.05,23.95,0)" xlink:href="#Y"/><use transform="matrix(0.05,0,0,0.05,33.95,0)" xlink:href="#ag"/><use transform="matrix(0.05,0,0,0.05,38.95,0)" xlink:href="#ad"/><use transform="matrix(0.05,0,0,0.05,42.900000000000006,0)" xlink:href="#ah"/><use transform="matrix(0.05,0,0,0.05,52.900000000000006,0)" xlink:href="#ai"/></g><g id="Q"><use transform="matrix(0.05,0,0,0.05,0,0)" xlink:href="#ag"/><use transform="matrix(0.05,0,0,0.05,5,0)" xlink:href="#ah"/></g><g id="R"><use transform="matrix(0.05,0,0,0.05,0,0)" xlink:href="#aU"/><use transform="matrix(0.05,0,0,0.05,10,0)" xlink:href="#X"/><use transform="matrix(0.05,0,0,0.05,19,0)" xlink:href="#Y"/><use transform="matrix(0.05,0,0,0.05,29,0)" xlink:href="#Z"/></g><g id="S"><use transform="matrix(0.05,0,0,0.05,0,0)" xlink:href="#af"/><use transform="matrix(0.05,0,0,0.05,10,0)" xlink:href="#ag"/><use transform="matrix(0.05,0,0,0.05,15,0)" xlink:href="#ag"/><use transform="matrix(0.05,0,0,0.05,20,0)" xlink:href="#af"/><use transform="matrix(0.05,0,0,0.05,30,0)" xlink:href="#ae"/><use transform="matrix(0.05,0,0,0.05,39,0)" xlink:href="#ba"/><use transform="matrix(0.05,0,0,0.05,49,0)" xlink:href="#Y"/><use transform="matrix(0.05,0,0,0.05,59,0)" xlink:href="#aX"/></g><g id="T"><use transform="matrix(0.05,0,0,0.05,0,0)" xlink:href="#af"/><use transform="matrix(0.05,0,0,0.05,10,0)" xlink:href="#ai"/></g><g id="U"><use transform="matrix(0.05,0,0,0.05,0,0)" xlink:href="#af"/><use transform="matrix(0.05,0,0,0.05,10,0)" xlink:href="#aU"/><use transform="matrix(0.05,0,0,0.05,20,0)" xlink:href="#ag"/><use transform="matrix(0.05,0,0,0.05,25,0)" xlink:href="#ba"/><use transform="matrix(0.05,0,0,0.05,35,0)" xlink:href="#ah"/><use transform="matrix(0.05,0,0,0.05,45,0)" xlink:href="#Z"/></g><g id="V"><use transform="matrix(0.05,0,0,0.05,0,0)" xlink:href="#af"/><use transform="matrix(0.05,0,0,0.05,10,0)" xlink:href="#ac"/><use transform="matrix(0.05,0,0,0.05,13.949999999999998,0)" xlink:href="#ag"/></g></defs></g></svg>